<svg width="18" height="22" viewBox="0 0 18 22" fill="none" xmlns="http://www.w3.org/2000/svg">
    <path d="M9.01997 1.91003C5.70997 1.91003 3.01997 4.60003 3.01997 7.91003V10.8C3.01997 11.41 2.75997 12.34 2.44997 12.86L1.29997 14.77C0.589966 15.95 1.07997 17.26 2.37997 17.7C6.68997 19.14 11.34 19.14 15.65 17.7C16.86 17.3 17.39 15.87 16.73 14.77L15.58 12.86C15.28 12.34 15.02 11.41 15.02 10.8V7.91003C15.02 4.61003 12.32 1.91003 9.01997 1.91003Z" stroke="#292D32" stroke-width="1.5" stroke-miterlimit="10" stroke-linecap="round"/>
    <path d="M10.87 2.19994C10.56 2.10994 10.24 2.03994 9.91004 1.99994C8.95004 1.87994 8.03004 1.94994 7.17004 2.19994C7.46004 1.45994 8.18004 0.939941 9.02004 0.939941C9.86004 0.939941 10.58 1.45994 10.87 2.19994Z" stroke="#292D32" stroke-width="1.5" stroke-miterlimit="10" stroke-linecap="round" stroke-linejoin="round"/>
    <path d="M12.02 18.0601C12.02 19.7101 10.67 21.0601 9.02002 21.0601C8.20002 21.0601 7.44002 20.7201 6.90002 20.1801C6.36002 19.6401 6.02002 18.8801 6.02002 18.0601" stroke="#292D32" stroke-width="1.5" stroke-miterlimit="10"/>
</svg>
