<svg width="22" height="22" viewBox="0 0 22 22" fill="none" xmlns="http://www.w3.org/2000/svg">
    <path d="M6.48 17.35L9.58 19.75C9.98 20.15 10.88 20.35 11.48 20.35H15.28C16.48 20.35 17.78 19.45 18.08 18.25L20.48 10.95C20.98 9.54997 20.08 8.34997 18.58 8.34997H14.58C13.98 8.34997 13.48 7.84997 13.58 7.14997L14.08 3.94997C14.28 3.04997 13.68 2.04997 12.78 1.74997C11.98 1.44997 10.98 1.84997 10.58 2.44997L6.48 8.54997" stroke="#292D32" stroke-width="1.5" stroke-miterlimit="10"/>
    <path d="M1.38 17.35V7.55002C1.38 6.15002 1.98 5.65002 3.38 5.65002H4.38C5.78 5.65002 6.38 6.15002 6.38 7.55002V17.35C6.38 18.75 5.78 19.25 4.38 19.25H3.38C1.98 19.25 1.38 18.75 1.38 17.35Z" stroke="#292D32" stroke-width="1.5" stroke-linecap="round" stroke-linejoin="round"/>
</svg>
