<svg width="20" height="22" viewBox="0 0 20 22" fill="none" xmlns="http://www.w3.org/2000/svg">
    <path d="M8.49002 1.23006L3.50003 3.10005C2.35003 3.53005 1.41003 4.89004 1.41003 6.12004V13.55C1.41003 14.73 2.19005 16.28 3.14005 16.99L7.44003 20.2001C8.85003 21.2601 11.17 21.2601 12.58 20.2001L16.88 16.99C17.83 16.28 18.61 14.73 18.61 13.55V6.12004C18.61 4.89004 17.67 3.53005 16.52 3.10005L11.53 1.23006C10.68 0.920059 9.32002 0.920059 8.49002 1.23006Z" stroke="#292D32" stroke-width="1.5" stroke-linecap="round" stroke-linejoin="round"/>
    <path d="M10.0001 9.92004C9.96006 9.92004 9.91006 9.92004 9.87006 9.92004C8.93006 9.89004 8.18005 9.11003 8.18005 8.16003C8.18005 7.19003 8.97006 6.40002 9.94006 6.40002C10.9101 6.40002 11.7001 7.19003 11.7001 8.16003C11.6901 9.12003 10.9401 9.89004 10.0001 9.92004Z" stroke="#292D32" stroke-width="1.5" stroke-linecap="round" stroke-linejoin="round"/>
    <path d="M8.01004 12.7201C7.05004 13.3601 7.05004 14.4101 8.01004 15.0501C9.10004 15.7801 10.89 15.7801 11.98 15.0501C12.94 14.4101 12.94 13.3601 11.98 12.7201C10.9 11.9901 9.11004 11.9901 8.01004 12.7201Z" stroke="#292D32" stroke-width="1.5" stroke-linecap="round" stroke-linejoin="round"/>
</svg>
