<svg width="22" height="24" viewBox="0 0 22 24" fill="none" xmlns="http://www.w3.org/2000/svg">
    <path d="M9.08512 5.55232C9.49423 5.48752 9.77336 5.10334 9.70856 4.69423C9.64376 4.28511 9.25958 4.00599 8.85047 4.07079C6.39008 4.46047 4.46044 6.39012 4.07076 8.8505C4.00596 9.25961 4.28508 9.64379 4.6942 9.70859C5.10331 9.77339 5.48749 9.49426 5.55229 9.08515C5.84032 7.26661 7.26658 5.84035 9.08512 5.55232Z" fill="#7C7C7C"/>
    <path fill-rule="evenodd" clip-rule="evenodd" d="M10.75 1C5.36522 1 1 5.36522 1 10.75C1 16.1348 5.36522 20.5 10.75 20.5C16.1348 20.5 20.5 16.1348 20.5 10.75C20.5 5.36522 16.1348 1 10.75 1ZM2.5 10.75C2.5 6.19365 6.19365 2.5 10.75 2.5C15.3063 2.5 19 6.19365 19 10.75C19 15.3063 15.3063 19 10.75 19C6.19365 19 2.5 15.3063 2.5 10.75Z" fill="#7C7C7C"/>
    <path d="M17.0607 17.5C16.7678 17.2071 16.2929 17.2071 16 17.5C15.7071 17.7929 15.7071 18.2678 16 18.5607L19.9999 22.5606C20.2928 22.8535 20.7677 22.8535 21.0605 22.5606C21.3534 22.2677 21.3534 21.7928 21.0606 21.5L17.0607 17.5Z" fill="#7C7C7C"/>
    <path d="M9.08512 5.55232C9.49423 5.48752 9.77336 5.10334 9.70856 4.69423C9.64376 4.28511 9.25958 4.00599 8.85047 4.07079C6.39008 4.46047 4.46044 6.39012 4.07076 8.8505C4.00596 9.25961 4.28508 9.64379 4.6942 9.70859C5.10331 9.77339 5.48749 9.49426 5.55229 9.08515C5.84032 7.26661 7.26658 5.84035 9.08512 5.55232Z" stroke="#7C7C7C" stroke-width="0.5" stroke-linecap="round"/>
    <path fill-rule="evenodd" clip-rule="evenodd" d="M10.75 1C5.36522 1 1 5.36522 1 10.75C1 16.1348 5.36522 20.5 10.75 20.5C16.1348 20.5 20.5 16.1348 20.5 10.75C20.5 5.36522 16.1348 1 10.75 1ZM2.5 10.75C2.5 6.19365 6.19365 2.5 10.75 2.5C15.3063 2.5 19 6.19365 19 10.75C19 15.3063 15.3063 19 10.75 19C6.19365 19 2.5 15.3063 2.5 10.75Z" stroke="#7C7C7C" stroke-width="0.5" stroke-linecap="round"/>
    <path d="M17.0607 17.5C16.7678 17.2071 16.2929 17.2071 16 17.5C15.7071 17.7929 15.7071 18.2678 16 18.5607L19.9999 22.5606C20.2928 22.8535 20.7677 22.8535 21.0605 22.5606C21.3534 22.2677 21.3534 21.7928 21.0606 21.5L17.0607 17.5Z" stroke="#7C7C7C" stroke-width="0.5" stroke-linecap="round"/>
</svg>
