<svg width="24" height="24" viewBox="0 0 24 24" fill="none" xmlns="http://www.w3.org/2000/svg">
<circle cx="11.9999" cy="9.6" r="3.6" stroke="#7C7C7C" stroke-width="2" stroke-linecap="round"/>
<rect x="1" y="1" width="22" height="22" rx="4" stroke="#7C7C7C" stroke-width="2"/>
<path fill-rule="evenodd" clip-rule="evenodd" d="M11.6967 17C9.93319 17 8.20332 17.484 6.7749 18.3974C5.34525 19.3116 4.27962 20.6184 3.79004 22.141L5.69403 22.7532C6.02489 21.7242 6.76712 20.7763 7.85234 20.0824C8.9388 19.3876 10.2903 19 11.6967 19C13.1031 19 14.4546 19.3876 15.5411 20.0824C16.6263 20.7763 17.3685 21.7242 17.6994 22.7532L19.6034 22.141C19.1138 20.6184 18.0482 19.3116 16.6185 18.3974C15.1901 17.484 13.4602 17 11.6967 17Z" fill="#7C7C7C"/>
</svg>
