<svg width="23" height="24" viewBox="0 0 23 24" fill="none" xmlns="http://www.w3.org/2000/svg">
<path d="M7.96775 5.83971C7.63158 5.90885 7.41677 6.2276 7.48838 6.55103C7.55998 6.87681 7.90586 7.07486 8.22504 7.01392C11.1353 6.41509 12.0103 8.68852 12.1013 8.95219C12.1863 9.20532 12.4302 9.36703 12.6923 9.36703C12.7542 9.36703 12.8186 9.35766 12.8817 9.33891C13.2081 9.23813 13.389 8.90063 13.2846 8.58422C12.8732 7.34204 11.2239 5.16354 7.96775 5.83971Z" fill="#7C7C7C"/>
<path d="M22.3375 15.3539L18.9904 12.8661C18.8241 12.3997 18.6566 11.8876 18.4806 11.3497C17.1335 7.23524 15.1371 1.13097 9.17829 1.84815C8.91251 1.13449 8.32876 0.549723 7.57268 0.241521C6.87 -0.0432428 6.0763 -0.0783989 5.33114 0.147772C4.55443 0.384489 3.91728 0.877846 3.54227 1.53292C3.15513 2.19854 3.07503 2.95088 3.3129 3.65752C0.843198 5.1622 -0.444445 8.01336 0.139302 10.8891C0.476687 12.5473 1.14903 14.1879 1.79952 15.7746C2.09201 16.4895 2.38327 17.1996 2.63692 17.8969L1.1284 22.0031C0.949996 22.4895 1.07014 23.0238 1.44151 23.3977C1.82744 23.7855 2.39784 23.9285 2.93183 23.7645L7.73045 22.3231C7.81055 22.3195 7.89065 22.3067 7.97075 22.282L8.84819 22.0137C9.24747 22.7191 9.88825 23.284 10.6977 23.6344C11.2609 23.877 11.8664 24 12.4769 24C12.9332 23.9988 13.392 23.9309 13.8374 23.7938C14.8896 23.4738 15.7536 22.8059 16.2719 21.9129C16.6845 21.1981 16.8289 20.4164 16.6954 19.609C16.7707 19.5809 16.8398 19.5446 16.9029 19.5C18.6226 18.9703 21.8411 17.9848 21.8411 17.9848C22.4091 17.8114 22.8242 17.3578 22.9249 16.8024C23.0256 16.2528 22.7999 15.6985 22.3375 15.3539ZM14.6444 21.0352C14.3604 21.525 13.875 21.8953 13.2742 22.0781C12.6662 22.2656 12.0206 22.2328 11.4599 21.9914C11.1456 21.8555 10.8822 21.6645 10.688 21.45L14.8811 20.1656C14.8847 20.468 14.8058 20.7563 14.6444 21.0352ZM15.1772 18.1875L9.31786 19.9817C9.25596 19.9875 9.19285 19.9992 9.13217 20.018L3.1794 21.8051L4.45006 18.3457C4.55321 18.0621 4.55443 17.7481 4.45248 17.4575C4.17699 16.684 3.85538 15.9012 3.53256 15.1125C2.91362 13.6008 2.27283 12.0376 1.96943 10.5423C1.49734 8.21726 2.73643 5.82665 4.91851 4.85986C5.15031 4.75673 5.32871 4.56572 5.41124 4.33252C5.49376 4.09932 5.47313 3.84268 5.3542 3.62471L5.26196 3.45596C5.194 3.33291 5.13211 3.23213 5.09327 3.12315C5.00832 2.88995 5.0338 2.64385 5.17094 2.40831C5.31657 2.15518 5.57265 1.96183 5.89183 1.86456C6.03503 1.8212 6.18188 1.79894 6.32751 1.79894C6.50713 1.79894 6.68432 1.83292 6.84694 1.89972C7.12729 2.01339 7.33845 2.21964 7.42826 2.46925C7.46831 2.5794 7.48287 2.69893 7.47195 2.82198C7.44525 3.11143 7.56419 3.39385 7.79235 3.58369C8.01929 3.77236 8.32391 3.84268 8.61882 3.77705C13.2815 2.68253 15.0388 6.80985 16.7027 11.8922C16.9005 12.4969 17.0886 13.0676 17.2767 13.5879C17.3678 13.834 17.5304 14.0508 17.75 14.2172L20.7355 16.4356C16.9673 17.5899 15.6723 17.9883 15.1772 18.1875Z" fill="#7C7C7C"/>
</svg>
