<svg width="24" height="24" viewBox="0 0 24 24" fill="none" xmlns="http://www.w3.org/2000/svg">
<path fill-rule="evenodd" clip-rule="evenodd" d="M14.9332 1.80711L15.0559 1.87801C16.1168 2.49044 17.0014 3.00113 17.6491 3.50099C18.3328 4.0286 18.8755 4.63419 19.1028 5.48244C19.3301 6.33069 19.1629 7.12647 18.8346 7.92523C18.5236 8.68199 18.0128 9.56657 17.4003 10.6274L12.1167 19.7791C11.7118 20.4816 11.3917 21.0371 10.9045 21.4557C10.4173 21.8743 9.82 22.1072 9.06453 22.4016L8.86038 22.4813C7.45856 23.029 6.30306 23.4805 5.35682 23.7016C4.36718 23.9328 3.41167 23.9615 2.52103 23.4473C1.6304 22.9331 1.17756 22.0912 0.882977 21.1186C0.601313 20.1886 0.414561 18.9622 0.187994 17.4743L0.154922 17.2576C0.0321811 16.4562 -0.0648716 15.8224 0.0540592 15.1912C0.0689258 15.1123 0.0869499 15.0346 0.107903 14.9576C0.254573 14.4189 0.544752 13.9173 0.89999 13.3032L6.18378 4.1515C6.79622 3.09066 7.30691 2.20604 7.80677 1.5583C8.33437 0.874609 8.93997 0.33196 9.78822 0.104673C10.6365 -0.122615 11.4322 0.0445373 12.231 0.372831C12.9878 0.683861 13.8724 1.19461 14.9332 1.80711ZM7.40812 6.12092L15.0826 10.5518L10.4153 18.6358C9.90681 19.5165 9.76143 19.7417 9.5718 19.9046C9.38218 20.0676 9.13767 20.1774 8.19045 20.5475C6.69559 21.1315 5.67749 21.5265 4.89156 21.7102C4.13235 21.8875 3.78784 21.8173 3.54354 21.6763C3.29923 21.5352 3.06619 21.272 2.8402 20.5258C2.60625 19.7534 2.43934 18.6741 2.19769 17.0875C2.04457 16.0822 2.01743 15.8155 2.06371 15.5698C2.11 15.3242 2.23233 15.0857 2.7408 14.205L7.40812 6.12092ZM16.9431 7.14783C16.7625 7.58742 16.4861 8.1043 16.103 8.77952L8.43277 4.35112C8.82593 3.68168 9.1354 3.18394 9.42577 2.80768C9.81358 2.30513 10.0748 2.14503 10.3175 2.08C10.5602 2.01497 10.8665 2.02301 11.4536 2.26432C12.0682 2.51691 12.8338 2.95646 13.972 3.6136C15.1102 4.27073 15.8737 4.71404 16.3998 5.11999C16.9023 5.5078 17.0624 5.76903 17.1274 6.01173C17.1925 6.25442 17.1844 6.5607 16.9431 7.14783Z" fill="#7C7C7C"/>
<path d="M13.0749 22.9775C13.0749 22.4128 13.5327 21.955 14.0974 21.955H22.2775C22.8422 21.955 23.3 22.4128 23.3 22.9775C23.3 23.5422 22.8422 24 22.2775 24H14.0974C13.5327 24 13.0749 23.5422 13.0749 22.9775Z" fill="#7C7C7C"/>
</svg>
