<svg width="33" height="33" viewBox="0 0 33 33" fill="none" xmlns="http://www.w3.org/2000/svg">
<path d="M19.1635 3.2226L21.8942 8.68406C22.2666 9.44432 23.2596 10.1736 24.0974 10.3132L29.0469 11.1355C32.2121 11.663 32.9568 13.9593 30.676 16.2246L26.8282 20.0725C26.1765 20.7241 25.8197 21.9809 26.0214 22.8808L27.123 27.644C27.9918 31.4143 25.9903 32.8728 22.6545 30.9023L18.0154 28.156C17.1775 27.6596 15.7966 27.6596 14.9433 28.156L10.3041 30.9023C6.98382 32.8728 4.9668 31.3988 5.83567 27.644L6.93728 22.8808C7.13898 21.9809 6.78212 20.7241 6.13047 20.0725L2.28262 16.2246C0.0173506 13.9593 0.746581 11.663 3.91175 11.1355L8.8612 10.3132C9.68352 10.1736 10.6765 9.44432 11.0489 8.68406L13.7796 3.2226C15.2691 0.259134 17.6895 0.259134 19.1635 3.2226Z" stroke="#FCC73F" stroke-linecap="round" stroke-linejoin="round"/>
</svg>
