<svg width="33" height="33" viewBox="0 0 33 33" fill="none" xmlns="http://www.w3.org/2000/svg">
<path d="M19.1981 3.2226L21.9288 8.68406C22.3012 9.44432 23.2942 10.1736 24.132 10.3132L29.0814 11.1355C32.2466 11.663 32.9914 13.9593 30.7106 16.2246L26.8627 20.0725C26.2111 20.7241 25.8542 21.9809 26.0559 22.8808L27.1575 27.644C28.0264 31.4143 26.0249 32.8728 22.689 30.9023L18.0499 28.156C17.2121 27.6596 15.8312 27.6596 14.9778 28.156L10.3387 30.9023C7.01837 32.8728 5.00135 31.3988 5.87022 27.644L6.97182 22.8808C7.17352 21.9809 6.81667 20.7241 6.16501 20.0725L2.31716 16.2246C0.0518965 13.9593 0.781127 11.663 3.94629 11.1355L8.89575 10.3132C9.71807 10.1736 10.7111 9.44432 11.0834 8.68406L13.8142 3.2226C15.3037 0.259134 17.7241 0.259134 19.1981 3.2226Z" fill="#FCC73F" stroke="#FCC73F" stroke-linecap="round" stroke-linejoin="round"/>
</svg>
