<svg width="33" height="33" viewBox="0 0 33 33" fill="none" xmlns="http://www.w3.org/2000/svg">
<path d="M19.1981 3.2226L21.9288 8.68406C22.3012 9.44432 23.2942 10.1736 24.132 10.3132L29.0814 11.1355C32.2466 11.663 32.9914 13.9593 30.7106 16.2246L26.8627 20.0725C26.2111 20.7241 25.8542 21.9809 26.0559 22.8808L27.1575 27.644C28.0264 31.4143 26.0249 32.8728 22.689 30.9023L18.0499 28.156C17.2121 27.6596 15.8312 27.6596 14.9778 28.156L10.3387 30.9023C7.01837 32.8728 5.00135 31.3988 5.87022 27.644L6.97182 22.8808C7.17352 21.9809 6.81667 20.7241 6.16501 20.0725L2.31716 16.2246C0.0518965 13.9593 0.781127 11.663 3.94629 11.1355L8.89575 10.3132C9.71807 10.1736 10.7111 9.44432 11.0834 8.68406L13.8142 3.2226C15.3037 0.259134 17.7241 0.259134 19.1981 3.2226Z" stroke="#FCC73F" stroke-linecap="round" stroke-linejoin="round"/>
<path fill-rule="evenodd" clip-rule="evenodd" d="M16 1.06836V27.8203C15.626 27.8737 15.2708 27.9857 14.9778 28.1561L10.3387 30.9024C7.01837 32.8728 5.00135 31.3989 5.87022 27.6441L6.97182 22.8808C7.17352 21.9809 6.81667 20.7242 6.16501 20.0725L2.31716 16.2247C0.0518965 13.9594 0.781127 11.6631 3.94629 11.1356L8.89575 10.3133C9.71807 10.1736 10.7111 9.44439 11.0834 8.68413L13.8142 3.22267C14.4284 2.00066 15.2009 1.28256 16 1.06836Z" fill="#FCC73F"/>
<path d="M16 1.06836H16.5C16.5 0.912907 16.4277 0.766298 16.3044 0.67167C16.181 0.577042 16.0207 0.545161 15.8706 0.585407L16 1.06836ZM16 27.8203L16.0707 28.3153C16.317 28.2801 16.5 28.0691 16.5 27.8203H16ZM14.9778 28.1561L14.7264 27.7239L14.7231 27.7259L14.9778 28.1561ZM10.3387 30.9024L10.084 30.4721L10.0835 30.4724L10.3387 30.9024ZM5.87022 27.6441L6.35735 27.7568L6.35736 27.7568L5.87022 27.6441ZM6.97182 22.8808L7.45897 22.9935L7.45972 22.9902L6.97182 22.8808ZM6.16501 20.0725L5.81146 20.4261L5.81146 20.4261L6.16501 20.0725ZM2.31716 16.2247L1.96361 16.5782L1.96361 16.5782L2.31716 16.2247ZM3.94629 11.1356L3.86435 10.6423L3.86409 10.6424L3.94629 11.1356ZM8.89575 10.3133L8.9777 10.8065L8.97945 10.8062L8.89575 10.3133ZM11.0834 8.68413L10.6362 8.46052L10.6344 8.4642L11.0834 8.68413ZM13.8142 3.22267L13.3674 2.99812L13.367 2.99906L13.8142 3.22267ZM15.5 1.06836V27.8203H16.5V1.06836H15.5ZM15.9293 27.3253C15.5058 27.3858 15.0862 27.5146 14.7264 27.7239L15.2293 28.5883C15.4554 28.4567 15.7462 28.3616 16.0707 28.3153L15.9293 27.3253ZM14.7231 27.7259L10.084 30.4721L10.5934 31.3326L15.2325 28.5864L14.7231 27.7259ZM10.0835 30.4724C8.46277 31.4342 7.38152 31.42 6.82822 31.0163C6.27532 30.6129 5.9333 29.5893 6.35735 27.7568L5.38309 27.5314C4.93827 29.4536 5.17032 31.0445 6.23879 31.8241C7.30687 32.6034 8.89429 32.341 10.5939 31.3323L10.0835 30.4724ZM6.35736 27.7568L7.45896 22.9935L6.48468 22.7682L5.38308 27.5314L6.35736 27.7568ZM7.45972 22.9902C7.58321 22.4392 7.53142 21.813 7.36912 21.246C7.20688 20.6792 6.91932 20.1197 6.51857 19.719L5.81146 20.4261C6.06236 20.677 6.27905 21.0717 6.40773 21.5212C6.53635 21.9705 6.56213 22.4226 6.48393 22.7715L7.45972 22.9902ZM6.51857 19.719L2.67072 15.8711L1.96361 16.5782L5.81146 20.4261L6.51857 19.719ZM2.67072 15.8711C1.60009 14.8005 1.3587 13.8473 1.57162 13.1806C1.78439 12.5143 2.53265 11.8781 4.02849 11.6288L3.86409 10.6424C2.19477 10.9206 0.995836 11.6963 0.619011 12.8764C0.242338 14.056 0.768974 15.3836 1.96361 16.5782L2.67072 15.8711ZM4.02824 11.6288L8.9777 10.8065L8.8138 9.82002L3.86435 10.6423L4.02824 11.6288ZM8.97945 10.8062C9.48869 10.7197 10.0145 10.4605 10.4561 10.1331C10.8977 9.80567 11.3015 9.37563 11.5325 8.90407L10.6344 8.4642C10.493 8.7529 10.2141 9.0676 9.86052 9.32979C9.50696 9.59194 9.12513 9.76715 8.81204 9.82032L8.97945 10.8062ZM11.5306 8.90774L14.2614 3.44627L13.367 2.99906L10.6362 8.46052L11.5306 8.90774ZM14.2609 3.44721C14.8424 2.29028 15.5236 1.71371 16.1295 1.55131L15.8706 0.585407C14.8781 0.851412 14.0143 1.71105 13.3674 2.99812L14.2609 3.44721Z" fill="#FCC73F"/>
</svg>
