<svg width="21" height="22" viewBox="0 0 21 22" fill="none" xmlns="http://www.w3.org/2000/svg">
    <path d="M18.5 10.3V6.04001C18.5 2.01001 17.56 1 13.78 1H6.22C2.44 1 1.5 2.01001 1.5 6.04001V17.3C1.5 19.96 2.96001 20.59 4.73001 18.69L4.73999 18.68C5.55999 17.81 6.80999 17.88 7.51999 18.83L8.53 20.18" stroke="#292D32" stroke-width="1.5" stroke-linecap="round" stroke-linejoin="round"/>
    <path d="M16.2 20.4C17.9673 20.4 19.4 18.9673 19.4 17.2C19.4 15.4327 17.9673 14 16.2 14C14.4327 14 13 15.4327 13 17.2C13 18.9673 14.4327 20.4 16.2 20.4Z" stroke="#292D32" stroke-width="1.5" stroke-linecap="round" stroke-linejoin="round"/>
    <path d="M20 21L19 20" stroke="#292D32" stroke-width="1.5" stroke-linecap="round" stroke-linejoin="round"/>
    <path d="M6 6H14" stroke="#292D32" stroke-width="1.5" stroke-linecap="round" stroke-linejoin="round"/>
    <path d="M7 10H13" stroke="#292D32" stroke-width="1.5" stroke-linecap="round" stroke-linejoin="round"/>
</svg>
