<svg width="22" height="22" viewBox="0 0 22 22" fill="none" xmlns="http://www.w3.org/2000/svg">
    <path d="M17.1404 20.6198C16.2604 20.8798 15.2204 20.9998 14.0004 20.9998H8.00035C6.78035 20.9998 5.74035 20.8798 4.86035 20.6198C5.08035 18.0198 7.75035 15.9697 11.0004 15.9697C14.2504 15.9697 16.9204 18.0198 17.1404 20.6198Z" stroke="#292D32" stroke-width="1.5" stroke-linecap="round" stroke-linejoin="round"/>
    <path d="M14 1H8C3 1 1 3 1 8V14C1 17.78 2.14 19.85 4.86 20.62C5.08 18.02 7.75 15.97 11 15.97C14.25 15.97 16.92 18.02 17.14 20.62C19.86 19.85 21 17.78 21 14V8C21 3 19 1 14 1ZM11 13.17C9.02 13.17 7.42 11.56 7.42 9.58002C7.42 7.60002 9.02 6 11 6C12.98 6 14.58 7.60002 14.58 9.58002C14.58 11.56 12.98 13.17 11 13.17Z" stroke="#292D32" stroke-width="1.5" stroke-linecap="round" stroke-linejoin="round"/>
    <path d="M14.5799 9.58002C14.5799 11.56 12.9799 13.17 10.9999 13.17C9.01992 13.17 7.41992 11.56 7.41992 9.58002C7.41992 7.60002 9.01992 6 10.9999 6C12.9799 6 14.5799 7.60002 14.5799 9.58002Z" stroke="#292D32" stroke-width="1.5" stroke-linecap="round" stroke-linejoin="round"/>
</svg>
