<svg width="25" height="22" viewBox="0 0 25 22" fill="none" xmlns="http://www.w3.org/2000/svg">
<path d="M19.3527 18.7715L18.7552 15.4069C18.66 14.8983 18.9855 14.3346 19.4735 14.1628L22.686 12.998C23.2515 12.6246 23.3595 11.8316 22.9079 11.3117L21.8621 10.1377C21.6128 9.85121 21.0943 9.69438 20.7263 9.79297L17.2364 10.7199C16.9855 10.7953 16.6015 10.7421 16.3779 10.613L13.6078 9.01372C13.1996 8.77803 13.1791 8.36448 13.5535 8.0752L18.3694 4.49249C19.1223 3.92926 19.0773 3.08684 18.2608 2.61546L17.007 1.89155C16.3558 1.51557 15.3268 1.56946 14.7261 2.02617L9.24676 6.10708C9.08894 6.22332 8.80626 6.24155 8.63131 6.14054L5.71539 4.45703C4.80174 3.92953 3.33564 3.9773 2.44631 4.55245C2.13217 4.75987 1.93576 5.10006 1.9132 5.47582C1.85977 6.53358 2.56117 7.83275 3.47482 8.36025L6.39074 10.0438C6.5657 10.1448 6.69125 10.3987 6.6695 10.5935L5.88063 17.3695C5.7757 18.1124 6.24353 19.0305 6.89475 19.4065L8.1486 20.1304C8.96505 20.6018 9.7171 20.2195 9.82845 19.2859L10.5232 13.3238C10.5712 12.8591 10.9549 12.6659 11.3631 12.9016L14.1332 14.5009C14.3568 14.63 14.5949 14.9359 14.6606 15.1812L15.6029 18.6671C15.7014 19.035 16.0868 19.4001 16.4693 19.4784L18.0089 19.797C18.6737 19.9476 19.3162 19.4632 19.3527 18.7715Z" stroke="#EF4E3E" stroke-width="2" stroke-linecap="round" stroke-linejoin="round"/>
</svg>
