<svg width="32" height="32" viewBox="0 0 32 32" fill="none" xmlns="http://www.w3.org/2000/svg">
<circle cx="16" cy="16" r="16" fill="#D9D9D9"/>
<path fill-rule="evenodd" clip-rule="evenodd" d="M16 12.756C13.5597 12.756 11.5814 14.6984 11.5814 17.0945C11.5814 19.4907 13.5597 21.4331 16 21.4331C18.4403 21.4331 20.4186 19.4907 20.4186 17.0945C20.4186 14.6984 18.4403 12.756 16 12.756ZM12.9767 17.0945C12.9767 15.4551 14.3303 14.1261 16 14.1261C17.6697 14.1261 19.0233 15.4551 19.0233 17.0945C19.0233 18.734 17.6697 20.063 16 20.063C14.3303 20.063 12.9767 18.734 12.9767 17.0945Z" fill="white"/>
<path fill-rule="evenodd" clip-rule="evenodd" d="M19.3955 7.26757C17.459 5.57748 14.541 5.57748 12.6045 7.26757L12.4038 7.44274C11.853 7.92351 11.1416 8.18908 10.4046 8.18908C7.972 8.18908 6 10.1254 6 12.5139V17.1359C5.99999 18.8133 5.99999 20.1282 6.1151 21.1714C6.23256 22.236 6.47658 23.0986 7.02154 23.8351C7.35145 24.2809 7.75078 24.673 8.20487 24.997C8.95494 25.5321 9.83343 25.7717 10.9177 25.887C11.9801 26 13.3192 26 15.0276 26H16.9723C18.6807 26 20.0199 26 21.0823 25.887C22.1666 25.7717 23.0451 25.5321 23.7951 24.997C24.2492 24.673 24.6486 24.2809 24.9785 23.8351C25.5234 23.0986 25.7674 22.236 25.8849 21.1714C26 20.1282 26 18.8134 26 17.136V12.5139C26 10.1254 24.028 8.18908 21.5954 8.18908C20.8584 8.18908 20.147 7.92351 19.5962 7.44274L19.3955 7.26757ZM13.5315 8.29158C14.9393 7.0629 17.0607 7.0629 18.4685 8.29158L18.6692 8.46675C19.4754 9.17044 20.5167 9.55915 21.5954 9.55915C23.2574 9.55915 24.6047 10.882 24.6047 12.5139V17.0945C24.6047 18.8223 24.6037 20.063 24.4977 21.0239C24.3931 21.9719 24.1929 22.5658 23.8496 23.0298C23.6058 23.3593 23.3106 23.6491 22.975 23.8886C22.5024 24.2257 21.8976 24.4222 20.9321 24.5249C19.9535 24.629 18.6898 24.6299 16.9302 24.6299H15.0698C13.3102 24.6299 12.0465 24.629 11.0679 24.5249C10.1025 24.4222 9.4976 24.2257 9.02504 23.8886C8.68941 23.6491 8.39425 23.3593 8.1504 23.0298C7.80706 22.5658 7.60693 21.9719 7.50233 21.0239C7.39631 20.063 7.39535 18.8223 7.39535 17.0945V12.5139C7.39535 10.882 8.74263 9.55915 10.4046 9.55915C11.4833 9.55915 12.5246 9.17044 13.3308 8.46675L13.5315 8.29158Z" fill="white"/>
<path d="M20.6512 12.5277C20.6512 13.0321 21.0676 13.4411 21.5814 13.4411C22.0951 13.4411 22.5116 13.0321 22.5116 12.5277C22.5116 12.0232 22.0951 11.6143 21.5814 11.6143C21.0676 11.6143 20.6512 12.0232 20.6512 12.5277Z" fill="white"/>
</svg>
