<svg width="120" height="120" viewBox="0 0 120 120" fill="none" xmlns="http://www.w3.org/2000/svg">
<rect width="120" height="120" rx="24" fill="#EF4E3E"/>
<path d="M34.168 69.984C34.36 69.808 34.6 69.808 34.888 69.984C35.08 70.112 35.208 70.312 35.272 70.584C35.336 70.856 35.376 71.416 35.392 72.264L35.44 73.632L36.088 73.656C36.536 73.672 36.856 73.656 37.048 73.608C37.736 73.48 38.224 73.488 38.512 73.632C38.816 73.776 38.88 74.048 38.704 74.448C38.592 74.704 37.744 74.904 36.16 75.048C35.696 75.096 35.432 75.16 35.368 75.24C35.304 75.32 35.272 75.64 35.272 76.2C35.272 77.016 35.24 78.016 35.176 79.2C35.128 80.384 35.08 81.016 35.032 81.096C34.92 81.304 34.736 81.44 34.48 81.504C34.24 81.552 34.048 81.504 33.904 81.36C33.792 81.248 33.728 81.112 33.712 80.952C33.696 80.776 33.712 80.36 33.76 79.704C33.808 78.936 33.832 78.168 33.832 77.4C33.848 76.52 33.872 75.632 33.904 74.736C33.952 73.728 33.984 72.728 34 71.736C34 70.84 34 70.344 34 70.248C34.016 70.152 34.072 70.064 34.168 69.984ZM25.312 70.176C25.408 70.128 25.456 70.104 25.456 70.104C25.488 70.104 25.752 70.16 26.248 70.272C26.744 70.368 27.08 70.44 27.256 70.488C27.544 70.584 27.76 70.648 27.904 70.68C27.936 70.68 28.048 70.712 28.24 70.776C28.432 70.84 28.592 70.888 28.72 70.92C28.816 70.952 28.92 70.984 29.032 71.016C29.16 71.048 29.288 71.088 29.416 71.136C29.544 71.168 29.624 71.192 29.656 71.208C29.928 71.288 30.12 71.4 30.232 71.544C30.36 71.688 30.432 71.896 30.448 72.168C30.464 72.376 30.48 72.504 30.496 72.552C30.512 72.6 30.56 72.632 30.64 72.648C31.28 72.792 31.6 73.064 31.6 73.464C31.6 74.024 31.216 74.232 30.448 74.088C29.856 73.976 29.328 73.904 28.864 73.872C28.4 73.84 27.576 73.832 26.392 73.848C24.824 73.848 23.912 73.872 23.656 73.92C23.272 73.984 22.976 73.92 22.768 73.728C22.576 73.536 22.544 73.28 22.672 72.96C22.768 72.752 22.944 72.632 23.2 72.6C23.472 72.568 24.36 72.544 25.864 72.528C25.928 72.528 25.976 72.528 26.008 72.528C27.896 72.528 28.856 72.496 28.888 72.432C28.904 72.384 28.864 72.328 28.768 72.264C28.672 72.2 28.496 72.128 28.24 72.048C27.792 71.904 27.416 71.776 27.112 71.664C26.488 71.456 26.016 71.328 25.696 71.28C25.376 71.216 25.168 71.056 25.072 70.8C24.976 70.528 25.056 70.32 25.312 70.176ZM26.656 74.4C27.056 74.336 27.536 74.368 28.096 74.496C28.656 74.608 29.064 74.776 29.32 75C29.464 75.128 29.64 75.272 29.848 75.432C30.136 75.672 30.336 76.024 30.448 76.488C30.56 76.936 30.552 77.392 30.424 77.856C30.328 78.272 30.24 78.568 30.16 78.744C30.08 78.904 29.944 79.056 29.752 79.2C29.368 79.52 28.832 79.744 28.144 79.872C27.472 79.984 26.824 79.968 26.2 79.824C25.384 79.648 24.744 79.296 24.28 78.768C23.816 78.224 23.624 77.648 23.704 77.04C23.784 76.416 24.128 75.896 24.736 75.48C25.04 75.256 25.24 75.112 25.336 75.048C25.448 74.952 25.664 74.832 25.984 74.688C26.304 74.528 26.528 74.432 26.656 74.4ZM27.928 75.864C26.872 75.624 25.944 75.864 25.144 76.584C24.68 77.016 24.616 77.456 24.952 77.904C25.288 78.336 25.856 78.552 26.656 78.552C26.88 78.552 27.128 78.576 27.4 78.624C28.04 78.736 28.536 78.584 28.888 78.168C29.24 77.752 29.304 77.24 29.08 76.632C29 76.408 28.88 76.248 28.72 76.152C28.56 76.04 28.296 75.944 27.928 75.864ZM32.32 82.824C32.384 82.76 32.736 82.752 33.376 82.8C34.016 82.832 34.408 82.888 34.552 82.968C35.176 83.32 35.448 84.488 35.368 86.472C35.336 87.528 35.32 88.128 35.32 88.272C35.304 88.816 35.2 89.176 35.008 89.352C34.832 89.544 34.488 89.624 33.976 89.592C33.496 89.56 32.544 89.568 31.12 89.616C28.992 89.664 27.56 89.656 26.824 89.592C26.088 89.544 25.656 89.4 25.528 89.16C25.48 89.032 25.448 88.656 25.432 88.032C25.432 87.424 25.456 86.848 25.504 86.304C25.568 85.712 25.616 85.096 25.648 84.456C25.68 83.88 25.72 83.536 25.768 83.424C25.848 83.216 26.008 83.104 26.248 83.088C26.504 83.056 26.728 83.12 26.92 83.28C27.048 83.376 27.176 83.416 27.304 83.4C27.464 83.368 28.048 83.296 29.056 83.184C29.424 83.136 29.736 83.088 29.992 83.04C30.28 83.008 30.728 82.968 31.336 82.92C31.976 82.888 32.304 82.856 32.32 82.824ZM33.736 84.312C33.688 84.248 33.536 84.208 33.28 84.192C33.024 84.176 32.8 84.192 32.608 84.24C32.16 84.352 31.24 84.456 29.848 84.552C28.056 84.68 27.12 84.792 27.04 84.888C26.992 84.952 26.944 85.504 26.896 86.544C26.864 87.568 26.872 88.12 26.92 88.2C26.952 88.248 27.04 88.272 27.184 88.272C27.328 88.288 27.76 88.288 28.48 88.272C30.512 88.224 31.632 88.2 31.84 88.2C31.968 88.2 32.136 88.2 32.344 88.2C33.064 88.184 33.48 88.152 33.592 88.104C33.72 88.072 33.8 87.944 33.832 87.72C33.832 87.656 33.84 87.608 33.856 87.576C33.936 86.984 33.96 86.32 33.928 85.584C33.912 84.848 33.848 84.424 33.736 84.312ZM55.9986 70.368C56.0946 70.256 56.1586 70.2 56.1906 70.2C56.2386 70.184 56.3346 70.192 56.4786 70.224C56.7506 70.272 56.8946 70.8 56.9106 71.808C56.9426 72.816 56.8866 75.784 56.7426 80.712C56.7106 82.072 56.6706 83.32 56.6226 84.456C56.5746 85.592 56.5506 86.512 56.5506 87.216C56.5506 88.08 56.4946 88.64 56.3826 88.896C56.2706 89.152 56.0306 89.28 55.6626 89.28C55.4706 89.28 55.3346 89.224 55.2546 89.112C55.1746 89.016 55.1106 88.752 55.0626 88.32C55.0306 87.888 55.0226 87.352 55.0386 86.712C55.0706 86.056 55.1266 85.072 55.2066 83.76C55.2706 82.768 55.3266 81.32 55.3746 79.416C55.4386 76.056 55.5186 73.976 55.6146 73.176C55.6466 72.904 55.6706 72.472 55.6866 71.88C55.6866 71.416 55.7026 71.08 55.7346 70.872C55.7826 70.664 55.8706 70.496 55.9986 70.368ZM52.1346 71.352C52.6626 71.272 52.9586 71.528 53.0226 72.12C53.1986 74.232 53.2306 76.28 53.1186 78.264C52.9426 81.144 52.8146 83.424 52.7346 85.104C52.7026 85.968 52.6626 86.496 52.6146 86.688C52.5186 87.088 52.2946 87.28 51.9426 87.264C51.5906 87.264 51.3666 87.056 51.2706 86.64C51.2546 86.528 51.2626 85.808 51.2946 84.48C51.3426 83.136 51.3906 82.064 51.4386 81.264C51.4866 80.4 51.5106 79.648 51.5106 79.008V77.952L51.1266 77.976C50.9186 77.976 50.4546 78.024 49.7346 78.12C48.9986 78.248 48.5826 78.32 48.4866 78.336C48.3106 78.352 48.1826 78.4 48.1026 78.48C48.0386 78.544 47.9746 78.68 47.9106 78.888C47.7186 79.432 47.3186 80.096 46.7106 80.88C46.3106 81.408 45.6866 82.464 44.8386 84.048C44.5186 84.672 44.1346 84.872 43.6866 84.648C43.5266 84.568 43.4306 84.464 43.3986 84.336C43.3666 84.208 43.4146 83.976 43.5426 83.64C43.6866 83.288 43.9026 82.872 44.1906 82.392C44.4786 81.896 44.9106 81.192 45.4866 80.28C46.1586 79.208 46.6226 78.304 46.8786 77.568C47.1346 76.816 47.1506 76.336 46.9266 76.128C46.8466 76.064 46.5986 76.032 46.1826 76.032C45.7666 76.016 45.3586 76.04 44.9586 76.104C44.6546 76.152 44.4706 76.2 44.4066 76.248C44.3426 76.296 44.2946 76.424 44.2626 76.632C44.2306 76.968 43.9906 77.744 43.5426 78.96C43.0946 80.176 42.7266 81.064 42.4386 81.624C41.8146 82.824 41.4066 83.56 41.2146 83.832C41.0386 84.104 40.8626 84.24 40.6866 84.24C40.3346 84.24 40.1186 84.096 40.0386 83.808C39.9586 83.52 40.0386 83.144 40.2786 82.68C40.5986 82.04 41.0066 81.16 41.5026 80.04C42.0146 78.904 42.3266 78.176 42.4386 77.856C42.5026 77.616 42.6066 77.28 42.7506 76.848C42.9426 76.272 42.9746 75.904 42.8466 75.744C42.7186 75.584 42.3506 75.536 41.7426 75.6C41.0386 75.68 40.5666 75.696 40.3266 75.648C40.1026 75.584 39.9906 75.424 39.9906 75.168C39.9906 74.832 40.1186 74.608 40.3746 74.496C40.6466 74.384 41.1746 74.328 41.9586 74.328C42.6306 74.328 43.1026 74.352 43.3746 74.4C43.6466 74.448 43.8626 74.536 44.0226 74.664C44.1186 74.76 44.2066 74.816 44.2866 74.832C44.3826 74.832 44.6466 74.816 45.0786 74.784C46.0226 74.736 46.6626 74.72 46.9986 74.736C47.3506 74.752 47.5986 74.808 47.7426 74.904C48.1106 75.144 48.3186 75.56 48.3666 76.152C48.3986 76.504 48.4306 76.704 48.4626 76.752C48.5106 76.784 49.0466 76.76 50.0706 76.68C51.0946 76.584 51.6226 76.512 51.6546 76.464C51.7506 76.384 51.7986 75.728 51.7986 74.496C51.8146 74.032 51.8386 73.696 51.8706 73.488C51.9026 73.28 51.8946 72.944 51.8466 72.48C51.7826 71.76 51.8786 71.384 52.1346 71.352ZM61.7294 69.864C61.8254 69.768 62.1054 69.76 62.5694 69.84C63.0494 69.904 63.6094 70.04 64.2494 70.248C64.7134 70.424 65.1374 70.568 65.5214 70.68C66.1134 70.856 66.4974 71.024 66.6734 71.184C66.8654 71.328 66.9614 71.568 66.9614 71.904C66.9614 72.08 66.9774 72.184 67.0094 72.216C67.0574 72.248 67.2014 72.288 67.4414 72.336C67.8254 72.4 68.0574 72.592 68.1374 72.912C68.2334 73.232 68.1214 73.472 67.8014 73.632C67.6734 73.696 67.5614 73.728 67.4654 73.728C67.3854 73.728 67.2014 73.712 66.9134 73.68C66.7694 73.664 66.3614 73.624 65.6894 73.56C65.2574 73.512 64.1454 73.488 62.3534 73.488C60.8014 73.488 59.8894 73.464 59.6174 73.416C59.3454 73.352 59.2094 73.168 59.2094 72.864C59.2094 72.528 59.3694 72.328 59.6894 72.264C60.0254 72.184 61.0014 72.144 62.6174 72.144C64.0574 72.128 64.9614 72.12 65.3294 72.12C65.3774 72.104 65.4014 72.072 65.4014 72.024C65.4014 71.928 65.0254 71.768 64.2734 71.544C63.9054 71.432 63.5854 71.328 63.3134 71.232C62.8654 71.088 62.6094 71.008 62.5454 70.992C62.1294 70.864 61.8414 70.688 61.6814 70.464C61.5214 70.24 61.5374 70.04 61.7294 69.864ZM70.4174 69.96C70.5614 69.8 70.7054 69.736 70.8494 69.768C71.1854 69.832 71.4094 70.04 71.5214 70.392C71.6494 70.728 71.7134 71.352 71.7134 72.264C71.7134 72.888 71.7454 73.232 71.8094 73.296C71.8734 73.36 72.1934 73.36 72.7694 73.296C73.8734 73.2 74.5374 73.176 74.7614 73.224C75.0014 73.256 75.1054 73.432 75.0734 73.752C75.0414 74.072 74.8894 74.28 74.6174 74.376C74.3454 74.472 73.6254 74.568 72.4574 74.664C71.9774 74.712 71.7134 74.76 71.6654 74.808C71.6334 74.84 71.6014 75.664 71.5694 77.28C71.5374 78.64 71.4974 79.464 71.4494 79.752C71.4014 80.024 71.2654 80.216 71.0414 80.328C70.7374 80.472 70.4974 80.456 70.3214 80.28C70.1454 80.104 70.0814 79.816 70.1294 79.416C70.1774 79.176 70.2014 78.04 70.2014 76.008C70.2174 74.088 70.2414 72.84 70.2734 72.264C70.3214 71.752 70.3374 71.4 70.3214 71.208C70.3214 71.176 70.3054 71.08 70.2734 70.92C70.2574 70.744 70.2494 70.616 70.2494 70.536C70.2174 70.376 70.2094 70.272 70.2254 70.224C70.2414 70.16 70.3054 70.072 70.4174 69.96ZM63.1454 74.016C63.6734 73.888 64.3214 73.984 65.0894 74.304C65.8734 74.624 66.3694 75 66.5774 75.432C66.9774 76.184 67.0334 76.92 66.7454 77.64C66.4734 78.36 65.9694 78.808 65.2334 78.984C63.8734 79.32 62.6814 79.248 61.6574 78.768C60.9694 78.432 60.5374 77.904 60.3614 77.184C60.2014 76.464 60.3694 75.848 60.8654 75.336C61.1054 75.096 61.4734 74.832 61.9694 74.544C62.4814 74.256 62.8734 74.08 63.1454 74.016ZM64.6094 75.48C64.4014 75.4 64.1294 75.352 63.7934 75.336C63.4574 75.32 63.2094 75.336 63.0494 75.384C62.3454 75.624 61.8494 75.944 61.5614 76.344C61.2894 76.744 61.3134 77.104 61.6334 77.424C61.7774 77.568 61.9534 77.664 62.1614 77.712C62.3854 77.76 62.9374 77.856 63.8174 78C64.5214 78.096 65.0494 77.952 65.4014 77.568C65.7534 77.168 65.7694 76.704 65.4494 76.176C65.3214 75.936 65.2094 75.776 65.1134 75.696C65.0174 75.616 64.8494 75.544 64.6094 75.48ZM66.8894 81.312C67.5454 81.232 68.2654 81.224 69.0494 81.288C69.8494 81.336 70.3854 81.416 70.6574 81.528C71.4254 81.88 71.6814 82.68 71.4254 83.928C71.2974 84.568 71.1214 85.008 70.8974 85.248C70.6894 85.472 70.2814 85.664 69.6734 85.824C69.4334 85.888 68.6654 85.96 67.3694 86.04C66.1694 86.12 65.2094 86.208 64.4894 86.304C64.2174 86.336 63.7614 86.384 63.1214 86.448C62.5294 86.512 62.2014 86.584 62.1374 86.664C62.0254 86.808 61.9774 87.048 61.9934 87.384C62.0094 87.736 62.0814 87.96 62.2094 88.056C62.4974 88.296 64.2894 88.4 67.5854 88.368C68.6574 88.368 69.4494 88.368 69.9614 88.368C70.4894 88.384 70.9214 88.416 71.2574 88.464C71.6094 88.512 71.8254 88.576 71.9054 88.656C71.9854 88.736 72.0254 88.856 72.0254 89.016C72.0254 89.304 71.9294 89.496 71.7374 89.592C71.5454 89.704 71.1854 89.752 70.6574 89.736C70.2414 89.72 69.0094 89.72 66.9614 89.736C65.1694 89.736 63.9694 89.712 63.3614 89.664C62.7694 89.616 62.2414 89.488 61.7774 89.28C61.3134 89.072 61.0094 88.856 60.8654 88.632C60.7374 88.408 60.6734 88.016 60.6734 87.456C60.6734 86.24 60.9374 85.576 61.4654 85.464C62.1374 85.32 62.9934 85.184 64.0334 85.056C64.3694 85.008 64.6654 84.968 64.9214 84.936C66.1534 84.744 67.3294 84.616 68.4494 84.552C69.0574 84.52 69.4334 84.472 69.5774 84.408C69.7374 84.344 69.8814 84.176 70.0094 83.904C70.2654 83.36 70.2414 83 69.9374 82.824C69.6334 82.648 68.9534 82.6 67.8974 82.68C67.0014 82.744 65.8094 82.768 64.3214 82.752C62.8494 82.736 62.0334 82.688 61.8734 82.608C61.6334 82.496 61.4894 82.352 61.4414 82.176C61.3934 81.984 61.4494 81.8 61.6094 81.624C61.6894 81.528 61.8494 81.472 62.0894 81.456C62.3294 81.44 63.0574 81.416 64.2734 81.384C65.6974 81.368 66.5694 81.344 66.8894 81.312ZM92.4719 69.984C92.7759 69.792 93.0319 69.808 93.2399 70.032C93.4159 70.208 93.4239 71.696 93.2639 74.496C93.2639 74.608 93.2479 74.96 93.2159 75.552C93.1839 76.128 93.1599 76.544 93.1439 76.8C93.0959 77.68 93.0079 79.12 92.8799 81.12C92.7679 83.168 92.6959 85.192 92.6639 87.192C92.6639 88.232 92.6479 88.84 92.6159 89.016C92.5839 89.208 92.4639 89.376 92.2559 89.52C92.0959 89.632 91.9119 89.664 91.7039 89.616C91.4959 89.584 91.3519 89.488 91.2719 89.328C91.0799 88.96 91.1599 85.632 91.5119 79.344C91.5599 78.56 91.5599 78.144 91.5119 78.096C91.4639 78.048 90.9039 78.12 89.8319 78.312C88.7599 78.488 88.1839 78.608 88.1039 78.672C88.0719 78.72 88.0399 79.464 88.0079 80.904C87.9119 85.352 87.7919 87.72 87.6479 88.008C87.5679 88.184 87.3919 88.304 87.1199 88.368C86.8479 88.432 86.6399 88.408 86.4959 88.296C86.3839 88.2 86.3199 88.08 86.3039 87.936C86.3039 87.792 86.3279 87.384 86.3759 86.712C86.4079 86.184 86.4239 85.472 86.4239 84.576C86.4399 83.68 86.4319 83.2 86.3999 83.136C86.3679 83.088 86.2719 83.024 86.1119 82.944C85.5519 82.672 85.5119 82.44 85.9919 82.248C86.2319 82.152 86.3759 82.056 86.4239 81.96C86.4879 81.864 86.5199 81.664 86.5199 81.36C86.5199 80.416 86.6319 78.608 86.8559 75.936C86.9039 75.328 86.9759 74.352 87.0719 73.008C87.1519 72 87.2159 71.368 87.2639 71.112C87.3279 70.856 87.4399 70.696 87.5999 70.632C87.8399 70.504 88.0559 70.544 88.2479 70.752C88.3279 70.832 88.3679 71.352 88.3679 72.312C88.3839 73.256 88.3679 74.32 88.3199 75.504C88.3039 75.584 88.2959 75.688 88.2959 75.816C88.2639 76.44 88.2639 76.8 88.2959 76.896C88.3439 76.992 88.5119 77.016 88.7999 76.968C88.8799 76.968 88.9359 76.96 88.9679 76.944C89.5439 76.88 89.9599 76.832 90.2159 76.8C90.2959 76.8 90.3999 76.792 90.5279 76.776C90.7519 76.76 90.9119 76.744 91.0079 76.728C91.1039 76.712 91.2079 76.68 91.3199 76.632C91.4479 76.568 91.5199 76.52 91.5359 76.488C91.5679 76.44 91.6079 76.328 91.6559 76.152C91.7039 75.976 91.7279 75.824 91.7279 75.696C91.7439 75.552 91.7599 75.312 91.7759 74.976C91.7759 74.8 91.7839 74.664 91.7999 74.568C91.8479 73.384 91.8879 72.712 91.9199 72.552C91.9359 72.472 91.9679 72.096 92.0159 71.424C92.0479 70.912 92.0879 70.568 92.1359 70.392C92.1999 70.216 92.3119 70.08 92.4719 69.984ZM79.2239 72.432C80.0559 72.336 80.8079 72.344 81.4799 72.456C82.1519 72.568 82.5999 72.76 82.8239 73.032C83.1119 73.384 83.2639 74.008 83.2799 74.904C83.3119 75.8 83.1999 76.496 82.9439 76.992C82.7199 77.424 82.4079 77.712 82.0079 77.856C81.6079 77.984 80.8079 78.088 79.6079 78.168C79.2239 78.2 78.9519 78.224 78.7919 78.24C78.6479 78.24 78.4799 78.28 78.2879 78.36C78.0959 78.424 77.9759 78.48 77.9279 78.528C77.8959 78.56 77.8479 78.68 77.7839 78.888C77.7199 79.096 77.6879 79.28 77.6879 79.44C77.6879 79.6 77.6799 79.888 77.6639 80.304C77.6319 80.848 77.6399 81.216 77.6879 81.408C77.7359 81.6 77.8479 81.736 78.0239 81.816C78.1359 81.864 78.9119 81.888 80.3519 81.888C81.8079 81.888 82.8799 81.864 83.5679 81.816C84.4639 81.768 85.0319 81.92 85.2719 82.272C85.4639 82.544 85.2719 82.808 84.6959 83.064C84.2959 83.256 83.0079 83.368 80.8319 83.4C78.6719 83.432 77.4399 83.368 77.1359 83.208C76.8799 83.064 76.6959 82.872 76.5839 82.632C76.4879 82.392 76.4079 82 76.3439 81.456C76.2799 81.024 76.2559 80.68 76.2719 80.424C76.2879 80.152 76.3519 79.624 76.4639 78.84C76.5439 78.2 76.7519 77.752 77.0879 77.496C77.4399 77.224 78.0559 77.032 78.9359 76.92C79.4319 76.856 79.7679 76.816 79.9439 76.8C80.2319 76.752 80.5039 76.728 80.7599 76.728C81.2719 76.728 81.6159 76.592 81.7919 76.32C81.9679 76.048 82.0639 75.608 82.0799 75C82.1119 74.376 82.0479 73.992 81.8879 73.848C81.6479 73.624 80.5599 73.624 78.6239 73.848C77.7279 73.96 77.1679 74.008 76.9439 73.992C76.7199 73.976 76.5759 73.856 76.5119 73.632C76.3999 73.296 76.5359 73.048 76.9199 72.888C77.3039 72.712 78.0719 72.56 79.2239 72.432ZM98.3667 71.28C98.4147 71.232 98.6867 71.216 99.1827 71.232C99.6787 71.248 99.9907 71.28 100.119 71.328C100.711 71.536 101.175 71.928 101.511 72.504C101.847 73.064 102.015 73.72 102.015 74.472C102.015 74.872 101.919 75.248 101.727 75.6C101.551 75.936 101.111 76.52 100.407 77.352C99.9907 77.88 99.6147 78.504 99.2787 79.224C98.9587 79.944 98.7507 80.592 98.6547 81.168C98.6387 81.344 98.5987 81.504 98.5347 81.648C98.4707 81.76 98.4307 81.944 98.4147 82.2C98.3667 82.552 98.2467 82.856 98.0547 83.112C97.8787 83.352 97.6867 83.472 97.4787 83.472C97.2867 83.472 97.1107 83.352 96.9507 83.112C96.9027 83.016 96.8867 82.776 96.9027 82.392C96.9187 82.008 96.9667 81.664 97.0467 81.36C97.0627 81.28 97.0867 81.152 97.1187 80.976C97.1667 80.8 97.1907 80.688 97.1907 80.64C97.5427 79.088 98.3267 77.6 99.5427 76.176C100.007 75.632 100.295 75.256 100.407 75.048C100.535 74.84 100.599 74.608 100.599 74.352C100.583 73.744 100.399 73.28 100.047 72.96C99.7107 72.624 99.2707 72.512 98.7267 72.624C98.3747 72.688 98.0307 72.832 97.6947 73.056C97.3747 73.264 97.1747 73.472 97.0947 73.68C96.9827 73.968 96.7987 74.144 96.5427 74.208C96.2867 74.272 96.0627 74.232 95.8707 74.088C95.6787 73.928 95.6147 73.704 95.6787 73.416C95.7427 73.048 96.0147 72.656 96.4947 72.24C96.9747 71.808 97.4707 71.528 97.9827 71.4C98.2227 71.336 98.3507 71.296 98.3667 71.28ZM96.7107 86.976C96.9347 86.88 97.1667 86.864 97.4067 86.928C97.6467 86.976 97.8147 87.112 97.9107 87.336C98.0227 87.56 97.9987 87.736 97.8387 87.864C97.7427 87.96 97.6067 88.048 97.4307 88.128C97.2547 88.208 97.1187 88.248 97.0227 88.248C96.6387 88.248 96.4067 88.072 96.3267 87.72C96.2467 87.384 96.3747 87.136 96.7107 86.976Z" fill="white"/>
<path d="M70.7604 58.167L69.7769 52.6295C69.6203 51.7925 70.156 50.8647 70.9591 50.5819L76.2465 48.6648C77.1771 48.0503 77.3548 46.7452 76.6117 45.8896L74.8904 43.9573C74.4801 43.4858 73.6267 43.2277 73.0211 43.39L67.2773 44.9155C66.8643 45.0397 66.2324 44.9521 65.8644 44.7397L61.3053 42.1075C60.6334 41.7195 60.5998 41.0389 61.216 40.5628L69.1421 34.6663C70.3811 33.7394 70.3071 32.3529 68.9634 31.5771L66.8998 30.3857C65.828 29.7669 64.1344 29.8555 63.1459 30.6072L54.1278 37.3237C53.8681 37.515 53.4028 37.545 53.1149 37.3787L48.3158 34.608C46.8121 33.7398 44.3992 33.8184 42.9355 34.765C42.4185 35.1064 42.0952 35.6663 42.0581 36.2847C41.9702 38.0256 43.1246 40.1638 44.6283 41.032L49.4273 43.8027C49.7153 43.969 49.9219 44.3869 49.8861 44.7075L48.5878 55.8596C48.4151 57.0823 49.1851 58.5933 50.2569 59.2121L52.3205 60.4035C53.6642 61.1793 54.9019 60.5502 55.0852 59.0136L56.2286 49.2011C56.3076 48.4363 56.9391 48.1183 57.611 48.5062L62.1701 51.1384C62.538 51.3508 62.9299 51.8543 63.038 52.2581L64.5888 57.9951C64.7511 58.6007 65.3853 59.2015 66.0148 59.3303L68.5488 59.8548C69.6429 60.1026 70.7003 59.3054 70.7604 58.167Z" stroke="white" stroke-width="1.5" stroke-linecap="round" stroke-linejoin="round"/>
<path d="M62.293 45.8203L68.9952 38.7526" stroke="white" stroke-width="1.5" stroke-linecap="round"/>
<path d="M63.957 47.4839L70.6592 40.4162" stroke="white" stroke-width="1.5" stroke-linecap="round"/>
</svg>
