<svg width="18" height="18" viewBox="0 0 18 18" fill="none" xmlns="http://www.w3.org/2000/svg">
<rect x="0.75" y="0.75" width="16.5" height="16.5" rx="3.25" fill="white" stroke="#EF4E3E" stroke-width="1.5"/>
<path d="M14.8088 6.25028C15.0851 5.94168 15.0589 5.46752 14.7503 5.19123C14.4417 4.91494 13.9675 4.94113 13.6912 5.24974L10.3221 9.01292C9.63936 9.77545 9.17961 10.2863 8.78653 10.6167C8.41207 10.9314 8.19214 11 8.00001 11C7.80788 11 7.58794 10.9314 7.21349 10.6167C6.82041 10.2863 6.36065 9.77545 5.67795 9.01291L4.80878 8.0421C4.53249 7.7335 4.05834 7.7073 3.74974 7.9836C3.44113 8.25989 3.41494 8.73404 3.69123 9.04264L4.59756 10.055C5.2334 10.7652 5.76375 11.3576 6.24836 11.7649C6.761 12.1958 7.31393 12.5 8.00001 12.5C8.68608 12.5 9.23902 12.1958 9.75165 11.7649C10.2363 11.3576 10.7666 10.7652 11.4024 10.055L14.8088 6.25028Z" fill="#EF4E3E"/>
</svg>
